#!OML:ASF F:\VICON\USERDATA\INSTALL\rory3\rory3.ASF
:FULLY-SPECIFIED
:DEGREES
46
root 0.24339315663386552 17.22633888935724 20.672677375259177 2.3436248565979065 -5.189585947675775 -4.353287475717806
lfemur -26.831214555949302 7.622816984677168 -14.674529768940822
ltibia 84.3686311128562
lfoot 2.899868449281012 -10.43098554191515
ltoes -8.784653260040066
rfemur -13.199214750767789 6.795464446183891 33.27948167086673
rtibia 46.092402857671466
rfoot -18.029624809498653 -9.317858825407189
rtoes 4.571632018887238
lowerback 15.03668879834238 1.0145133936035595 3.0942307797270727
upperback -0.03947312476471765 3.934981993301301 2.668357368035111
thorax -8.746132037420077 1.2088186780116492 -0.7145806778434594
lowerneck -20.298780298739725 -3.6991458536105704 -1.4246283397272217
upperneck 9.329469226404715 -5.7447934886668985 2.7833511578781476
head 6.153048625226473 -2.4417417886691024 0.5916083489001718
lclavicle 4.2874894013840705e-15 5.758947334063212e-17
lhumerus -53.37168504764247 -10.67023713507751 97.78505414811725
lradius 111.58693784710943
lwrist 28.47247847634382
lhand -29.56665040221232 2.7405226438107504
lfingers 7.125019999999998
lthumb -3.2563066384694497 32.07722072535473
rclavicle 4.2874560579016296e-15 5.75655391779213e-17
rhumerus -37.518996536018726 13.916451474175776 -97.90221696819685
rradius 104.97373293416263
rwrist -9.061488726504711
rhand -20.389155233521553 36.493429301281886
rfingers 7.125019999999998
rthumb 5.908137935808237 6.471853378564908
47
root 0.29016117819372905 17.30482050554301 21.842529468281978 2.56235608263063 -4.462866506378429 -4.268511686876451
lfemur -28.966581303605732 7.18817750213663 -15.516032735213408
ltibia 80.19157100260931
lfoot 0.9944532285146387 -11.001485115295909
ltoes -9.811244104942771
rfemur -10.756962401950704 6.306155676889258 33.31841352343519
rtibia 42.601705876000985
rfoot -17.581277776167028 -9.269390923264762
rtoes 5.646835813990494
lowerback 14.91135031318088 1.1996375734400873 3.542746642941146
upperback -0.19208628365234648 4.1490691133898 2.5158962762001362
thorax -8.736096355488387 1.2654990847752436 -1.0841508637384494
lowerneck -20.15304003385074 -3.9000188398043982 -1.4319475746560562
upperneck 9.350625233432618 -5.8524391958733935 2.8908480598750828
head 6.150617105899057 -2.538812985279406 0.5834214238516303
lclavicle 4.2874894013840705e-15 5.758947334063212e-17
lhumerus -54.41989539212936 -10.653123604051666 97.99988544337587
lradius 110.84761646250197
lwrist 28.44228031521391
lhand -29.741807035422294 2.8594297159051467
lfingers 7.125019999999998
lthumb -3.2734134740420067 32.28197343731035
rclavicle 4.287456057901629e-15 5.756553917792112e-17
rhumerus -36.31902010845555 14.383708375988263 -97.74248106031216
rradius 105.42675995311703
rwrist -8.900606922242352
rhand -20.38838060588414 36.54643987682765
rfingers 7.125019999999998
rthumb 5.889818117018837 6.519819259060578
48
root 0.34589990991359104 17.424501175207197 22.940073819190772 2.696640606919841 -3.556706804798633 -4.269512201663787
lfemur -30.985985708829496 6.562994316142391 -16.253052069861706
ltibia 74.4452391190292
lfoot 0.2466054072946825 -10.86347113921164
ltoes -10.363414043622775
rfemur -7.503808288132493 5.957855496853746 33.51729712591775
rtibia 38.377108523762075
rfoot -16.083270144408804 -8.749097081556867
rtoes 6.178042915597118
lowerback 14.72129222013561 1.3611962433981764 4.011095107799095
upperback -0.3947353309258775 4.253074192463447 2.321540911223238
thorax -8.672643341666104 1.3571212330689963 -1.2994402261560427
lowerneck -19.93697764353865 -4.03540377080657 -1.4370683820866972
upperneck 9.417848182943363 -5.905307480310012 3.0141022111181712
head 6.158616288554049 -2.620204379257258 0.5852147748060339
lclavicle 4.2874894013840705e-15 5.758947334063212e-17
lhumerus -55.218542139649315 -10.768336060814406 98.12959933287922
lradius 110.11882505069617
lwrist 28.343252158873526
lhand -29.797791091233016 2.9821629550978765
lfingers 7.125019999999998
lthumb -3.2769168156399426 32.454232607045284
rclavicle 4.287456057901629e-15 5.756553917792083e-17
rhumerus -35.344286395575054 14.843053923882614 -97.58861933045294
rradius 105.81847835158815
rwrist -8.794658255156973
rhand -20.374599695169103 36.59102337080203
rfingers 7.125019999999998
rthumb 5.941071315966926 6.611635587869788
49
root 0.4147965404307158 17.59051724035004 24.516075076541142 2.8656103517769784 -2.4307793849961676 -4.348808994669233
lfemur -31.690216783216428 5.767096263421235 -17.040962968081296
ltibia 68.06919101314651
lfoot 0.003929106531107118 -10.73102839196416
ltoes -10.987526179313065
rfemur -5.5945450349928585 5.510670270543171 33.144782603178896
rtibia 33.66501959468654
rfoot -13.915194437332715 -7.906673638244591
rtoes 5.863626764776389
lowerback 14.435108411940096 1.4797387850887054 4.426186332385884
upperback -0.6149807575109603 4.253499822290618 2.1106042922625496
thorax -8.68901866358372 1.3197335151203906 -1.6918440719025658
lowerneck -19.716841741897312 -4.171260846004715 -1.4673194376440248
upperneck 9.455322154515732 -5.962282998213525 3.103098458979413
head 6.183458458745544 -2.6715914592449983 0.5985928050775216
lclavicle 4.2874894013840705e-15 5.758947334063212e-17
lhumerus -54.69516694440871 -10.672825329074726 98.22123900091447
lradius 109.27333594954672
lwrist 28.39034969820479
lhand -29.995965851285828 2.939173114676009
lfingers 7.125019999999998
lthumb -3.331669403126207 32.649009125264456
rclavicle 4.287456057901628e-15 5.756553917792057e-17
rhumerus -34.599778403817794 15.305613104285705 -97.4407685470908
rradius 106.04165574605787
rwrist -8.9078767537926
rhand -20.430448098781056 36.53324136761013
rfingers 7.125019999999998
rthumb 5.919068478908159 6.696128643436468
50
root 0.4748547102035885 17.759001124581232 24.86727755658673 2.937598943135105 -1.4924427748899558 -4.45877750565562
lfemur -32.95414703971062 4.711757429701841 -17.830652832560347
ltibia 61.51265982037372
lfoot -0.5703117913228812 -10.88977173771034
ltoes -11.140665322164327
rfemur -4.181437370358569 5.053912017383618 32.4693736125872
rtibia 29.573359874720538
rfoot -10.814335581211118 -6.717374939806555
rtoes 5.178998728149198
lowerback 14.022998757587073 1.5610001839228616 4.726613546416355
upperback -0.8521875748301769 4.164933977934723 1.8902146792052519
thorax -8.58150732557807 1.3792976531240768 -1.802905171838935
lowerneck -19.505955763010242 -4.313450783906516 -1.5443643374983176
upperneck 9.506298642765403 -6.028584851350828 3.155055839340959
head 6.208971499195976 -2.7045855436102073 0.6192316821141672
lclavicle 4.2874894013840705e-15 5.758947334063212e-17
lhumerus -54.450569408248704 -10.680592770301843 98.07783074504086
lradius 108.49681242226103
lwrist 28.6037217971383
lhand -30.024100158028517 3.0320879532161333
lfingers 7.125019999999998
lthumb -3.4384038177174006 32.7317240129004
rclavicle 4.287456057901628e-15 5.756553917792054e-17
rhumerus -34.0915228182327 15.763313197807596 -97.31245506786018
rradius 106.05377071180565
rwrist -9.126071982425753
rhand -20.376095387600547 36.599120244862256
rfingers 7.125019999999998
rthumb 5.873666257205609 6.662546832453823
